<?xml version="1.0" encoding="UTF-8"?>
<svg id="gamepad" width="90px" height="40px" viewBox="0 0 90 40" version="1.1" xmlns="http://www.w3.org/2000/svg" xmlns:xlink="http://www.w3.org/1999/xlink">
    <!-- Generator: Sketch 45.2 (43514) - http://www.bohemiancoding.com/sketch -->
    <title>gamepad</title>
    <desc>Created with Sketch.</desc>
    <defs>
        <polygon id="path-1" points="12.3333333 31.2999992 17.6666667 31.2999992 17.6666667 26.2999992 23 26.2999992 23 21.2999992 17.6666667 21.2999992 17.6666667 16.2999992 12.3333333 16.2999992 12.3333333 21.2999992 7 21.2999992 7 26.2999992 12.3333333 26.2999992"></polygon>
    </defs>
    <g id="Page-1" stroke="none" stroke-width="1" fill="none" fill-rule="evenodd">
        <g id="gamepad">
            <g id="controller" fill-rule="nonzero" fill="#000000">
                <path d="M88.75,0 L1.25,0 C0.5625,0 0,0.5625 0,1.25 L0,38.75 C0,39.4375 0.5625,40 1.25,40 L88.75,40 C89.4375,40 90,39.4375 90,38.75 L90,1.25 C90,0.5625 89.4375,0 88.75,0 Z M1.25,1.25 L88.75,1.25 L88.75,38.75 L1.25,38.75 L1.25,1.25 Z" id="Shape"></path>
                <path d="M2.7305,37.5 L87.3905,37.5 L87.394406,6.25 L2.730406,6.25 L2.7305,37.5 Z M29.2505,12.5 C29.2505,12.08594 29.58644,11.75 30.0005,11.75 L55.0005,11.75 C55.41456,11.75 55.7505,12.08594 55.7505,12.5 L55.7505,15 C55.7505,15.41406 55.41456,15.75 55.0005,15.75 L30.0005,15.75 C29.58644,15.75 29.2505,15.41406 29.2505,15 L29.2505,12.5 Z M29.2505,18.75 C29.2505,18.33594 29.58644,18 30.0005,18 L55.0005,18 C55.41456,18 55.7505,18.33594 55.7505,18.75 L55.7505,20.5039 C55.7505,20.91796 55.41456,21.2539 55.0005,21.2539 L30.0005,21.2539 C29.58644,21.2539 29.2505,20.91796 29.2505,20.5039 L29.2505,18.75 Z M54.5005,25.5 L54.5005,29.5 C54.5005,30.19141 53.94191,30.75 53.2505,30.75 L31.7505,30.75 C31.05909,30.75 30.5005,30.19141 30.5005,29.5 L30.5005,25.5 C30.5005,24.80859 31.05909,24.25 31.7505,24.25 L53.2505,24.25 C53.94191,24.25 54.5005,24.80859 54.5005,25.5 Z M55.7505,8.75 C55.7505,9.16406 55.41456,9.5 55.0005,9.5 L30.0005,9.5 C29.58644,9.5 29.2505,9.16406 29.2505,8.75 L29.2505,7.375 L55.7505,7.375 L55.7505,8.75 Z M29.2505,34.5 C29.2505,34.08594 29.58644,33.75 30.0005,33.75 L55.0005,33.75 C55.41456,33.75 55.7505,34.08594 55.7505,34.5 L55.7505,36.375 L29.2505,36.375 L29.2505,34.5 Z M59.5005,31.25 L59.5005,23.75 C59.5005,22.78516 60.28566,22 61.2505,22 L68.7505,22 C69.71534,22 70.5005,22.78516 70.5005,23.75 L70.5005,31.25 C70.5005,32.21484 69.71534,33 68.7505,33 L61.2505,33 C60.28566,33 59.5005,32.21484 59.5005,31.25 Z M72.0005,31.25 L72.0005,23.75 C72.0005,22.78516 72.78566,22 73.7505,22 L81.2505,22 C82.21534,22 83.0005,22.78516 83.0005,23.75 L83.0005,31.25 C83.0005,32.21484 82.21534,33 81.2505,33 L73.7505,33 C72.78566,33 72.0005,32.21484 72.0005,31.25 Z M11.2505,27.0938 L6.7505,27.0938 L6.7505,20.5 L11.2505,20.5 C11.52784,20.5 11.7505,20.27734 11.7505,20 L11.7505,15.5 L18.2505,15.5 L18.2505,20 C18.2505,20.27734 18.47316,20.5 18.7505,20.5 L23.2505,20.5 L23.2505,27.0938 L18.7505,27.0938 C18.47316,27.0938 18.2505,27.31646 18.2505,27.5938 L18.2505,32 L11.7505,32 L11.7505,27.5938 C11.7505,27.32036 11.52784,27.0938 11.2505,27.0938 Z" id="Shape"></path>
                <path d="M33.75,29.25 L38.75,29.25 C39.71484,29.25 40.5,28.46484 40.5,27.5 C40.5,26.53516 39.71484,25.75 38.75,25.75 L33.75,25.75 C32.78516,25.75 32,26.53516 32,27.5 C32,28.46484 32.78516,29.25 33.75,29.25 Z" id="Shape"></path>
                <path d="M46.25,29.25 L51.25,29.25 C52.21484,29.25 53,28.46484 53,27.5 C53,26.53516 52.21484,25.75 51.25,25.75 L46.25,25.75 C45.28516,25.75 44.5,26.53516 44.5,27.5 C44.5,28.46484 45.28516,29.25 46.25,29.25 Z" id="Shape"></path>
                <path d="M65,31.75 C67.3438,31.75 69.25,29.8438 69.25,27.5 C69.25,25.1562 67.3438,23.25 65,23.25 C62.6562,23.25 60.75,25.1562 60.75,27.5 C60.75,29.8438 62.6562,31.75 65,31.75 Z" id="a" class="pad-button"></path>
                <path d="M77.5,31.75 C79.8438,31.75 81.75,29.8438 81.75,27.5 C81.75,25.1562 79.8438,23.25 77.5,23.25 C75.1562,23.25 73.25,25.1562 73.25,27.5 C73.25,29.8438 75.1562,31.75 77.5,31.75 Z" id="b" class="pad-button"></path>
            </g>
            <g id="all_button" fill-rule="nonzero">
                <use fill="#D8D8D8" fill-rule="evenodd" xlink:href="#path-1"></use>
                <path stroke="#D8D8D8" stroke-width="1" d="M12.8333333,30.7999992 L17.1666667,30.7999992 L17.1666667,25.7999992 L22.5,25.7999992 L22.5,21.7999992 L17.1666667,21.7999992 L17.1666667,16.7999992 L12.8333333,16.7999992 L12.8333333,21.7999992 L7.5,21.7999992 L7.5,25.7999992 L12.8333333,25.7999992 L12.8333333,30.7999992 Z"></path>
            </g>
            <rect id="left" class="pad-button" fill="#BD10E0" x="7" y="21" width="5" height="5"></rect>
            <rect id="right" class="pad-button" fill="#D0021B" x="18" y="21" width="5" height="5"></rect>
            <rect id="middle" class="pad-button" fill="#47A0F4" x="12" y="21" width="6" height="5"></rect>
            <rect id="up" class="pad-button" fill="#F5A623" x="12.25" y="16" width="5.5" height="5"></rect>
            <rect id="down" class="pad-button" fill="#417505" x="12.25" y="26" width="5.5" height="5"></rect>
        </g>
    </g>
</svg>
